<?xml version="1.0" encoding="utf-8"?>
<!-- Generator: Adobe Illustrator 16.0.0, SVG Export Plug-In . SVG Version: 6.00 Build 0)  -->
<!DOCTYPE svg PUBLIC "-//W3C//DTD SVG 1.1//EN" "http://www.w3.org/Graphics/SVG/1.1/DTD/svg11.dtd">
<svg version="1.1" id="图层_1" xmlns="http://www.w3.org/2000/svg" xmlns:xlink="http://www.w3.org/1999/xlink" x="0px" y="0px"
	 width="50px" height="50px" viewBox="0 0 50 50" enable-background="new 0 0 50 50" xml:space="preserve">
<g>
	<path fill="#FFFFFF" d="M29.463,28.754L29.463,28.754c0.75-0.008,1.359-0.619,1.359-1.369c0-0.754-0.609-1.365-1.359-1.37v-0.004
		h-2.761c0.004-0.031-0.005-0.058,0-0.091l3.237-3.31c0.529-0.597,0.261-1.086-0.274-1.625c-0.538-0.543-1.413-0.656-1.851-0.184
		l-2.784,2.968l-3.008-3.004c-0.378-0.381-1.123-0.26-1.653,0.274c-0.533,0.534-0.655,1.275-0.278,1.652l3.076,3.076
		c-0.059,0.072-0.094,0.156-0.117,0.243H20.55v0.004h-0.01c-0.759,0-1.369,0.61-1.369,1.37c0,0.754,0.61,1.369,1.369,1.369h0.01
		v0.004h2.739v1.366H20.55v0.004h-0.01c-0.759,0-1.369,0.613-1.369,1.373c0,0.754,0.61,1.369,1.369,1.369h0.01l0,0h2.739
		c0,0-0.005,1.6-0.005,1.711c0,0.947,0.769,1.715,1.716,1.715s1.716-0.768,1.716-1.715c0-0.117-0.019-1.711-0.019-1.711h2.766
		c0.75-0.004,1.359-0.615,1.359-1.369s-0.609-1.364-1.359-1.369v-0.004h-2.766v-1.365L29.463,28.754L29.463,28.754L29.463,28.754
		L29.463,28.754L29.463,28.754z M30.531,12.783l1.479-1.845l0.004-0.004c0.006-0.005,0.006-0.005,0.01-0.009l0.287-0.359
		c0.18-0.225,0.252-0.512,0.211-0.791c0.01-0.059,0.014-0.126,0.014-0.198c0-0.731-0.387-1.392-1.006-1.76
		c-0.135-0.125-0.301-0.22-0.489-0.26c-0.136-0.027-3.327-0.709-6.313-0.709H24.65c-2.864,0.014-6.224,0.678-6.362,0.705
		c-0.193,0.04-0.364,0.13-0.503,0.26c-0.624,0.364-1.011,1.024-1.011,1.761c0,0.076,0.006,0.148,0.014,0.21
		c-0.037,0.274,0.035,0.552,0.211,0.777l0.265,0.328c0.008,0.014,0.021,0.027,0.035,0.041c0.014,0.014,0.023,0.027,0.036,0.041
		l1.63,2.034c-6.331,2.955-11.091,9.991-11.091,16.731c0,9.156,5.441,13.417,17.126,13.417c11.686,0,17.126-4.266,17.126-13.417
		C42.126,22.823,37.109,15.594,30.531,12.783L30.531,12.783L30.531,12.783z M18.88,9.64c-0.009-0.014-0.022-0.027-0.036-0.041V9.596
		c0-0.009-0.004-0.019-0.009-0.027c0.045-0.018,0.095-0.041,0.134-0.067c0.854-0.157,3.477-0.602,5.694-0.611h0.067
		c2.286,0,4.788,0.45,5.608,0.606c0.045,0.027,0.096,0.054,0.139,0.072v0.005c0,0.009-0.004,0.017-0.004,0.026l-0.018,0.027
		c-0.018,0.022-0.036,0.045-0.055,0.067l-2.11,2.631h-7.261L18.91,9.676C18.902,9.667,18.888,9.653,18.88,9.64L18.88,9.64
		L18.88,9.64z M25,41.122c-10.575,0-15.088-3.403-15.088-11.384c0-6.292,4.953-13.138,11.073-15.371h7.783
		c0.026,0,0.049-0.004,0.075-0.008h0.148c6.134,2.218,11.096,9.079,11.096,15.375C40.088,37.718,35.575,41.122,25,41.122L25,41.122
		L25,41.122z"/>
</g>
</svg>
