<?xml version="1.0" encoding="utf-8"?>
<!-- Generator: Adobe Illustrator 16.0.0, SVG Export Plug-In . SVG Version: 6.00 Build 0)  -->
<!DOCTYPE svg PUBLIC "-//W3C//DTD SVG 1.1//EN" "http://www.w3.org/Graphics/SVG/1.1/DTD/svg11.dtd">
<svg version="1.1" id="图层_1" xmlns="http://www.w3.org/2000/svg" xmlns:xlink="http://www.w3.org/1999/xlink" x="0px" y="0px"
	 width="80px" height="80px" viewBox="0 0 80 80" enable-background="new 0 0 80 80" xml:space="preserve">
<g>
	
		<circle fill-rule="evenodd" clip-rule="evenodd" fill="none" stroke="#D13142" stroke-width="2" stroke-miterlimit="10" cx="20.424" cy="19.413" r="16.521"/>
	<path fill="none" d="M8.741,27.826l-1.416-2.455c-0.047-0.078-0.127-0.125-0.219-0.125c-0.043,0-0.086,0.012-0.125,0.034
		l-1.35,0.78c0.459,1.022,1.023,1.985,1.674,2.883l1.344-0.775C8.768,28.099,8.809,27.945,8.741,27.826z"/>
	<path fill="none" d="M16.862,33.376l-2.664-0.97c-0.02-0.001-0.037-0.002-0.057-0.002c-0.139,0-0.227,0.052-0.264,0.153
		l-0.531,1.459c0.992,0.484,2.041,0.868,3.133,1.143l0.531-1.462C17.057,33.567,16.991,33.423,16.862,33.376z"/>
	<path fill="none" d="M9.235,19.551H7.067c-0.318,0.314-0.75,0.51-1.227,0.51c-0.1,0-0.201-0.008-0.305-0.026l-1.313-0.231
		c0.037,1.692,0.334,3.318,0.854,4.845l1.156-0.667c0.809-0.468,1.926-0.164,2.391,0.64l1.416,2.455
		c0.482,0.834,0.195,1.907-0.641,2.391l-1.146,0.662c1.086,1.235,2.354,2.299,3.764,3.159l0.453-1.245
		c0.32-0.882,1.357-1.37,2.242-1.046l2.664,0.97c0.904,0.329,1.375,1.335,1.045,2.242l-0.455,1.249
		c0.771,0.118,1.555,0.196,2.357,0.201v-5.025C14.233,30.579,9.293,25.64,9.235,19.551z"/>
	<path fill="none" d="M26.737,32.391l-2.75,0.984c-0.129,0.047-0.195,0.191-0.148,0.322l0.531,1.461
		c1.094-0.275,2.141-0.659,3.133-1.143l-0.531-1.459C26.93,32.442,26.823,32.391,26.737,32.391z"/>
	<path fill="none" d="M10.735,19.551c0.059,5.262,4.324,9.527,9.588,9.583v-9.583H10.735z"/>
	<path fill="none" d="M10.141,9.393l2.172-1.822c0.105-0.088,0.119-0.247,0.029-0.353l-1.006-1.2
		C10.413,6.646,9.563,7.372,8.79,8.17l1,1.192C9.915,9.513,10.022,9.492,10.141,9.393z"/>
	<path fill="none" d="M8.055,15.824l-0.492,2.791c-0.064,0.369-0.246,0.689-0.496,0.937h2.168c0-0.036-0.004-0.07-0.004-0.106
		c0-6.138,4.967-11.134,11.092-11.189V6.635h-1.314c-0.965,0-1.75-0.785-1.75-1.75V3.541c-1.646,0.327-3.201,0.902-4.627,1.688
		l0.861,1.027c0.619,0.74,0.521,1.845-0.215,2.465l-2.172,1.822c-0.314,0.264-0.715,0.41-1.125,0.41
		c-0.518,0-1.008-0.228-1.34-0.625l-0.857-1.02c-1.025,1.276-1.854,2.71-2.459,4.259l1.311,0.231
		C7.586,13.965,8.223,14.874,8.055,15.824z"/>
	<path fill="none" d="M20.323,29.134c0.033,0,0.068,0.005,0.102,0.005c5.311,0,9.631-4.292,9.689-9.588h-9.791V29.134z"/>
	<path fill="none" d="M33.868,25.281c-0.039-0.022-0.08-0.033-0.125-0.033c-0.09,0-0.172,0.046-0.217,0.124l-1.418,2.455
		c-0.068,0.119-0.027,0.273,0.094,0.343l1.342,0.775c0.652-0.897,1.215-1.86,1.676-2.883L33.868,25.281z"/>
	<path fill="none" d="M10.731,19.445c0,0.036,0.004,0.071,0.004,0.106h9.588V9.756C15.024,9.811,10.731,14.133,10.731,19.445z"/>
	<path fill="none" d="M30.114,19.551c0-0.036,0.006-0.07,0.006-0.106c0-5.346-4.35-9.694-9.695-9.694
		c-0.033,0-0.068,0.005-0.102,0.005v9.795H30.114z"/>
	<path fill="none" d="M30.809,27.076l1.418-2.454c0.463-0.804,1.582-1.105,2.389-0.641l1.156,0.667
		c0.52-1.527,0.816-3.153,0.854-4.844l-1.314,0.231c-0.102,0.018-0.203,0.026-0.301,0.026c-0.479,0-0.91-0.195-1.229-0.51h-2.168
		c-0.059,6.123-5.053,11.088-11.189,11.088c-0.033,0-0.068-0.005-0.102-0.005v5.025c0.035,0,0.068,0.005,0.102,0.005
		c0.838,0,1.654-0.083,2.457-0.207l-0.453-1.249c-0.328-0.907,0.141-1.913,1.045-2.243l2.664-0.969
		c0.877-0.318,1.922,0.165,2.242,1.045l0.453,1.245c1.41-0.86,2.678-1.924,3.764-3.158l-1.146-0.663
		C30.614,28.982,30.329,27.91,30.809,27.076z"/>
	<path fill="none" d="M6.086,18.354l0.492-2.791c0.023-0.135-0.068-0.265-0.203-0.289l-1.537-0.271
		c-0.301,1.055-0.494,2.151-0.574,3.281l1.576,0.276C5.961,18.561,6.065,18.474,6.086,18.354z"/>
	<path fill="none" d="M21.842,6.635h-1.52v1.621c0.033,0,0.068-0.005,0.102-0.005c6.172,0,11.195,5.022,11.195,11.194
		c0,0.036-0.006,0.071-0.006,0.106h2.168c-0.25-0.248-0.432-0.567-0.498-0.936l-0.49-2.792c-0.166-0.949,0.471-1.858,1.42-2.026
		l1.311-0.231c-0.605-1.548-1.434-2.983-2.459-4.258l-0.855,1.02c-0.336,0.397-0.824,0.624-1.342,0.624
		c-0.41,0-0.811-0.145-1.125-0.408l-2.17-1.824c-0.736-0.618-0.834-1.723-0.217-2.463l0.863-1.028
		c-1.428-0.785-2.982-1.36-4.627-1.688v1.344C23.592,5.85,22.807,6.635,21.842,6.635z"/>
	<path fill="none" d="M28.538,7.57l2.17,1.824c0.105,0.087,0.205,0.142,0.354-0.032l1-1.191c-0.775-0.799-1.625-1.525-2.549-2.152
		l-1.006,1.2C28.418,7.324,28.432,7.482,28.538,7.57z"/>
	<path fill="none" d="M34.272,15.563l0.49,2.792c0.02,0.117,0.127,0.206,0.248,0.206l0.043-0.003l1.531-0.27
		c-0.08-1.13-0.273-2.228-0.574-3.283l-1.537,0.27C34.338,15.299,34.249,15.428,34.272,15.563z"/>
	<path fill="none" d="M20.323,3.231v1.904h1.52c0.137,0,0.25-0.112,0.25-0.25V3.311c-0.549-0.056-1.105-0.085-1.668-0.085
		C20.391,3.226,20.358,3.23,20.323,3.231z"/>
	<path fill="none" d="M19.008,5.135h1.314V3.231c-0.527,0.003-1.051,0.027-1.564,0.08v1.574C18.758,5.022,18.87,5.135,19.008,5.135z
		"/>
	<path fill="#D13142" d="M20.424,8.25c-0.033,0-0.068,0.005-0.102,0.005C14.198,8.311,9.231,13.307,9.231,19.445
		c0,0.036,0.004,0.071,0.004,0.106h1.5c0-0.036-0.004-0.07-0.004-0.106c0-5.312,4.293-9.634,9.592-9.689
		c0.033,0,0.068-0.005,0.102-0.005c5.346,0,9.695,4.349,9.695,9.694c0,0.036-0.006,0.071-0.006,0.106h1.5
		c0-0.036,0.006-0.07,0.006-0.106C31.62,13.272,26.596,8.25,20.424,8.25z"/>
	<path fill="#D13142" d="M10.735,19.551h-1.5c0.059,6.089,4.998,11.027,11.088,11.083v-1.5
		C15.059,29.079,10.793,24.813,10.735,19.551z"/>
	<path fill="#D13142" d="M20.424,29.139c-0.033,0-0.068-0.005-0.102-0.005v1.5c0.033,0,0.068,0.005,0.102,0.005
		c6.137,0,11.131-4.965,11.189-11.088h-1.5C30.055,24.848,25.735,29.139,20.424,29.139z"/>
	<path fill="#D13142" d="M19.008,6.635h1.314v-1.5h-1.314c-0.139,0-0.25-0.112-0.25-0.25V3.311c-0.508,0.052-1.008,0.132-1.5,0.229
		v1.344C17.258,5.85,18.043,6.635,19.008,6.635z"/>
	<path fill="#D13142" d="M21.842,5.135h-1.52v1.5h1.52c0.965,0,1.75-0.785,1.75-1.75V3.541c-0.494-0.098-0.992-0.177-1.5-0.229
		v1.574C22.092,5.022,21.979,5.135,21.842,5.135z"/>
	<path fill="#D13142" d="M9.981,10.952c0.41,0,0.811-0.146,1.125-0.41l2.172-1.822c0.736-0.62,0.834-1.725,0.215-2.465l-0.861-1.027
		c-0.445,0.245-0.877,0.508-1.295,0.791l1.006,1.2c0.09,0.106,0.076,0.264-0.029,0.353l-2.172,1.822
		c-0.119,0.099-0.227,0.12-0.352-0.031l-1-1.192C8.438,8.534,8.102,8.912,7.784,9.307l0.857,1.02
		C8.973,10.724,9.463,10.952,9.981,10.952z"/>
	<path fill="#D13142" d="M5.84,20.061c0.477,0,0.908-0.195,1.227-0.51H4.211c0,0.085,0.01,0.167,0.012,0.252l1.313,0.231
		C5.639,20.053,5.741,20.061,5.84,20.061z"/>
	<path fill="#D13142" d="M7.563,18.615l0.492-2.791c0.168-0.95-0.469-1.859-1.42-2.027l-1.311-0.231
		c-0.184,0.469-0.346,0.948-0.486,1.438l1.537,0.271c0.135,0.024,0.227,0.154,0.203,0.289l-0.492,2.791
		c-0.021,0.12-0.125,0.207-0.246,0.207l-1.576-0.276c-0.027,0.385-0.059,0.769-0.059,1.16c0,0.036,0.006,0.07,0.006,0.106h2.855
		C7.317,19.304,7.499,18.984,7.563,18.615z"/>
	<path fill="#D13142" d="M10.04,27.076l-1.416-2.455c-0.465-0.803-1.582-1.107-2.391-0.64l-1.156,0.667
		c0.164,0.481,0.348,0.952,0.555,1.412l1.35-0.78c0.039-0.022,0.082-0.034,0.125-0.034c0.092,0,0.172,0.047,0.219,0.125l1.416,2.455
		c0.068,0.119,0.027,0.272-0.092,0.342l-1.344,0.775c0.299,0.41,0.613,0.805,0.947,1.185l1.146-0.662
		C10.235,28.982,10.522,27.91,10.04,27.076z"/>
	<path fill="#D13142" d="M17.375,31.966l-2.664-0.97c-0.885-0.324-1.922,0.164-2.242,1.046l-0.453,1.245
		c0.432,0.263,0.875,0.505,1.33,0.728l0.531-1.459c0.037-0.101,0.125-0.153,0.264-0.153c0.02,0,0.037,0.001,0.057,0.002l2.664,0.97
		c0.129,0.047,0.195,0.191,0.148,0.321l-0.531,1.462c0.488,0.123,0.982,0.222,1.486,0.299l0.455-1.249
		C18.75,33.301,18.28,32.295,17.375,31.966z"/>
	<path fill="#D13142" d="M26.137,30.997l-2.664,0.969c-0.904,0.33-1.373,1.335-1.045,2.243l0.453,1.249
		c0.506-0.077,1-0.176,1.488-0.299l-0.531-1.461c-0.047-0.13,0.02-0.275,0.148-0.322l2.75-0.984c0.086,0,0.193,0.051,0.234,0.166
		l0.531,1.459c0.457-0.223,0.9-0.465,1.33-0.728l-0.453-1.245C28.059,31.162,27.014,30.679,26.137,30.997z"/>
	<path fill="#D13142" d="M32.108,27.826l1.418-2.455c0.045-0.078,0.127-0.124,0.217-0.124c0.045,0,0.086,0.011,0.125,0.033
		l1.352,0.78c0.205-0.46,0.389-0.931,0.553-1.413l-1.156-0.667c-0.807-0.465-1.926-0.164-2.389,0.641l-1.418,2.454
		c-0.48,0.833-0.195,1.906,0.641,2.391l1.146,0.663c0.334-0.38,0.648-0.775,0.947-1.186l-1.342-0.775
		C32.081,28.099,32.04,27.945,32.108,27.826z"/>
	<path fill="#D13142" d="M35.01,20.062c0.098,0,0.199-0.008,0.301-0.026l1.314-0.231c0.002-0.085,0.012-0.168,0.014-0.253h-2.857
		C34.1,19.866,34.532,20.062,35.01,20.062z"/>
	<path fill="#D13142" d="M32.793,15.824l0.49,2.792c0.066,0.369,0.248,0.688,0.498,0.936h2.857c0-0.036,0.004-0.07,0.004-0.106
		c0-0.391-0.031-0.773-0.059-1.157l-1.531,0.27l-0.043,0.003c-0.121,0-0.229-0.089-0.248-0.206l-0.49-2.792
		c-0.023-0.135,0.066-0.265,0.201-0.289l1.537-0.27c-0.139-0.49-0.303-0.969-0.486-1.439l-1.311,0.231
		C33.264,13.965,32.627,14.875,32.793,15.824z"/>
	<path fill="#D13142" d="M27.573,8.719l2.17,1.824c0.314,0.263,0.715,0.408,1.125,0.408c0.518,0,1.006-0.227,1.342-0.624l0.855-1.02
		c-0.316-0.395-0.652-0.773-1.004-1.136l-1,1.191c-0.148,0.174-0.248,0.119-0.354,0.032l-2.17-1.824
		c-0.105-0.088-0.119-0.246-0.031-0.351l1.006-1.2c-0.416-0.284-0.85-0.546-1.293-0.791l-0.863,1.028
		C26.739,6.996,26.836,8.101,27.573,8.719z"/>
</g>
</svg>
