<?xml version="1.0" encoding="utf-8"?>
<!-- Generator: Adobe Illustrator 16.0.0, SVG Export Plug-In . SVG Version: 6.00 Build 0)  -->
<!DOCTYPE svg PUBLIC "-//W3C//DTD SVG 1.1//EN" "http://www.w3.org/Graphics/SVG/1.1/DTD/svg11.dtd">
<svg version="1.1" id="图层_1" xmlns="http://www.w3.org/2000/svg" xmlns:xlink="http://www.w3.org/1999/xlink" x="0px" y="0px"
	 width="80px" height="80px" viewBox="0 0 80 80" enable-background="new 0 0 80 80" xml:space="preserve">
<path fill="#D13142" d="M35.636,7.272c-0.11-0.543-0.591-0.934-1.152-0.934h-5.682V2.824c0-0.646-0.525-1.17-1.174-1.17H8.882
	c-0.648,0-1.172,0.523-1.172,1.17v3.514H1.986c-0.56,0-1.042,0.391-1.153,0.934c-0.035,0.17-0.824,4.276,1.468,7.073
	c1.379,1.685,3.516,3.712,6.349,3.712c0.063,0,0.115-0.026,0.174-0.035c1.558,3.689,4.614,6.354,8.208,6.892v7.23H13.5
	c-0.644,0-1.164,0.522-1.164,1.169c0,0.649,0.52,1.173,1.164,1.173h9.386c0.644,0,1.163-0.523,1.163-1.173
	c0-0.647-0.519-1.169-1.163-1.169h-3.502v-7.193c3.703-0.43,6.791-3.132,8.338-6.915c0.033,0.004,0.063,0.021,0.097,0.021
	c2.835,0,4.971-2.027,6.351-3.712C36.459,11.549,35.67,7.442,35.636,7.272z M4.131,12.873C3.088,11.61,2.984,9.747,3.037,8.68H7.71
	v3.957c0,1.029,0.143,2.008,0.347,2.959C6.286,15.301,4.95,13.867,4.131,12.873z M18.362,22.879c-4.636,0-8.308-4.638-8.308-10.242
	v-8.64h16.403v8.64l0,0C26.457,18.241,22.996,22.879,18.362,22.879z M32.338,12.873c-0.81,0.984-2.127,2.394-3.866,2.712
	c0.193-0.949,0.331-1.924,0.331-2.948V8.68h4.63C33.484,9.747,33.382,11.61,32.338,12.873z"/>
</svg>
