<?xml version="1.0" encoding="utf-8"?>
<!-- Generator: Adobe Illustrator 16.0.0, SVG Export Plug-In . SVG Version: 6.00 Build 0)  -->
<!DOCTYPE svg PUBLIC "-//W3C//DTD SVG 1.1//EN" "http://www.w3.org/Graphics/SVG/1.1/DTD/svg11.dtd">
<svg version="1.1" id="图层_1" xmlns="http://www.w3.org/2000/svg" xmlns:xlink="http://www.w3.org/1999/xlink" x="0px" y="0px"
	 width="80px" height="80px" viewBox="0 0 80 80" enable-background="new 0 0 80 80" xml:space="preserve">
<circle fill="none" stroke="#D13142" stroke-width="2" stroke-miterlimit="10" cx="18.235" cy="18.025" r="16.524"/>
<path fill="#D13142" d="M19.447,27.843c0,0.625-0.507,1.133-1.133,1.133l0,0c-0.625,0-1.132-0.508-1.132-1.133V13.831
	c0-0.626,0.507-1.133,1.132-1.133l0,0c0.626,0,1.133,0.507,1.133,1.133V27.843z"/>
<path fill="#D13142" d="M19.022,13.248c0.419,0.419,0.418,1.099-0.001,1.518l0,0c-0.418,0.418-1.099,0.419-1.518,0l-5.86-5.86
	c-0.418-0.419-0.418-1.099,0-1.518l0,0c0.419-0.42,1.099-0.42,1.519-0.001L19.022,13.248z"/>
<path fill="#D13142" d="M17.447,13.248c-0.419,0.419-0.418,1.099,0.001,1.518l0,0c0.418,0.418,1.099,0.419,1.518,0l5.86-5.86
	c0.418-0.419,0.418-1.099,0-1.518l0,0c-0.419-0.42-1.099-0.42-1.519-0.001L17.447,13.248z"/>
<path fill="#D13142" d="M24.596,18.144c0,0.637-0.517,1.153-1.153,1.153H13.187c-0.637,0-1.153-0.516-1.153-1.153l0,0
	c0-0.637,0.517-1.153,1.153-1.153h10.256C24.079,16.99,24.596,17.507,24.596,18.144L24.596,18.144z"/>
<path fill="#D13142" d="M24.596,22.914c0,0.637-0.517,1.153-1.153,1.153H13.187c-0.637,0-1.153-0.516-1.153-1.153l0,0
	c0-0.637,0.517-1.152,1.153-1.152h10.256C24.079,21.761,24.596,22.277,24.596,22.914L24.596,22.914z"/>
</svg>
