<?xml version="1.0" encoding="utf-8"?>
<!-- Generator: Adobe Illustrator 16.0.0, SVG Export Plug-In . SVG Version: 6.00 Build 0)  -->
<!DOCTYPE svg PUBLIC "-//W3C//DTD SVG 1.1//EN" "http://www.w3.org/Graphics/SVG/1.1/DTD/svg11.dtd">
<svg version="1.1" id="图层_1" xmlns="http://www.w3.org/2000/svg" xmlns:xlink="http://www.w3.org/1999/xlink" x="0px" y="0px"
	 width="80px" height="80px" viewBox="0 0 80 80" enable-background="new 0 0 80 80" xml:space="preserve">
<path fill="none" d="M35.508,21.927c0-0.646-0.471-1.162-1.082-1.283v2.565C35.037,23.088,35.508,22.573,35.508,21.927z"/>
<path fill="none" d="M25.509,21.927c0-1.838,1.495-3.333,3.333-3.333h3.584v-6.114c0-0.48-0.311-0.886-0.679-0.886H3.784
	c-0.368,0-0.679,0.406-0.679,0.886v18.979c0,0.48,0.311,0.885,0.679,0.885h27.963c0.368,0,0.679-0.405,0.679-0.885V25.26h-3.584
	C27.004,25.26,25.509,23.765,25.509,21.927z"/>
<path fill="none" d="M28.842,20.594c-0.735,0-1.333,0.598-1.333,1.333c0,0.735,0.598,1.333,1.333,1.333h3.584v-2.667H28.842z"/>
<path fill="#D13142" d="M32.426,25.26v6.198c0,0.48-0.311,0.885-0.679,0.885H3.784c-0.368,0-0.679-0.405-0.679-0.885V12.479
	c0-0.48,0.311-0.886,0.679-0.886h27.963c0.368,0,0.679,0.406,0.679,0.886v6.114h1.749c0.086,0,0.167,0.019,0.251,0.025v-6.14
	c0-1.591-1.201-2.886-2.679-2.886H3.784c-1.478,0-2.679,1.294-2.679,2.886v18.979c0,1.591,1.201,2.885,2.679,2.885h27.963
	c1.478,0,2.679-1.294,2.679-2.885v-6.224c-0.084,0.006-0.165,0.025-0.251,0.025H32.426z"/>
<path fill="#D13142" d="M27.509,21.927c0-0.735,0.598-1.333,1.333-1.333h3.584v-2h-3.584c-1.838,0-3.333,1.496-3.333,3.333
	s1.495,3.333,3.333,3.333h3.584v-2h-3.584C28.106,23.26,27.509,22.662,27.509,21.927z"/>
<path fill="#D13142" d="M37.508,21.927c0-1.752-1.363-3.177-3.082-3.308v2.025c0.611,0.121,1.082,0.636,1.082,1.283
	c0,0.646-0.471,1.161-1.082,1.282v2.025C36.145,25.104,37.508,23.679,37.508,21.927z"/>
<path fill="#D13142" d="M32.426,18.594v2h1.749c0.089,0,0.167,0.034,0.251,0.051v-2.025c-0.084-0.006-0.165-0.025-0.251-0.025
	H32.426z"/>
<path fill="#D13142" d="M34.175,23.26h-1.749v2h1.749c0.086,0,0.167-0.019,0.251-0.025v-2.025
	C34.342,23.226,34.264,23.26,34.175,23.26z"/>
<path fill-rule="evenodd" clip-rule="evenodd" fill="none" stroke="#D13142" stroke-width="2" stroke-miterlimit="10" d="
	M2.105,12.479c0.001-0.789,0.01-1.578,0-2.367C2.099,9.485,2.128,8.857,2.113,8.23C2.098,7.578,1.976,6.747,2.232,6.127
	c0.533-1.287,1.79-2.201,3.193-2.201c2.5,0,21.085,0.333,21.085,0.333s2.082,0.875,2.165,2.542s0,3.458,0,3.458"/>
</svg>
